<svg width="1145" height="513" viewBox="0 0 1145 513" fill="none" xmlns="http://www.w3.org/2000/svg">
<path d="M1144.66 386.837C1144.66 427.368 1134.64 458.601 1114.62 480.536C1094.59 501.993 1065.5 512.722 1027.36 512.722C989.209 512.722 960.122 501.993 940.095 480.536C920.067 458.601 910.054 427.368 910.054 386.837V126.484C910.054 85.9533 920.067 54.9589 940.095 33.5012C960.122 11.5668 989.209 0.599548 1027.36 0.599548C1065.5 0.599548 1094.59 11.5668 1114.62 33.5012C1134.64 54.9589 1144.66 85.9533 1144.66 126.484V175.122H1070.27V121.478C1070.27 88.5759 1056.68 72.125 1029.5 72.125C1002.32 72.125 988.732 88.5759 988.732 121.478V391.844C988.732 424.269 1002.32 440.481 1029.5 440.481C1056.68 440.481 1070.27 424.269 1070.27 391.844V320.318H1144.66V386.837Z" fill="white"/>
<path d="M773.474 6.32156C812.574 6.32156 841.9 16.812 861.45 37.7928C881 58.7736 890.776 89.5295 890.776 130.061V195.149C890.776 235.68 881 266.436 861.45 287.417C841.9 308.398 812.574 318.888 773.474 318.888H736.28V507H657.602V6.32156H773.474ZM736.28 247.362H773.474C786.348 247.362 795.885 243.786 802.084 236.634C808.76 229.481 812.098 217.322 812.098 200.156V125.054C812.098 107.888 808.76 95.7284 802.084 88.5759C795.885 81.4233 786.348 77.8471 773.474 77.8471H736.28V247.362Z" fill="white"/>
<path d="M552.298 507L538.708 416.163H442.149L428.559 507H356.318L436.427 6.32156H551.583L631.691 507H552.298ZM527.979 348.213L490.071 95.0132L452.162 348.213H527.979Z" fill="white"/>
<path d="M221.124 6.32156H330.558V507H256.171V147.942L201.812 507H127.425L68.7744 152.949V507H0.10997V6.32156H109.544L167.48 361.803L221.124 6.32156Z" fill="white"/>
</svg>
